<?xml version="1.0" ?>
<!-- Uploaded to: SVG Repo, www.svgrepo.com, Generator: SVG Repo Mixer Tools -->
<svg fill="#000000" width="800px" height="800px" viewBox="0 -2.67 33.192 33.192" xmlns="http://www.w3.org/2000/svg">
<g transform="translate(-607.927 -261.915)">
<path d="M622.894,263.915a9.816,9.816,0,1,1-9.816,9.816,9.828,9.828,0,0,1,9.816-9.816m0-2a11.816,11.816,0,1,0,11.816,11.816,11.816,11.816,0,0,0-11.816-11.816Z"/>
<path d="M622.894,272.952a.779.779,0,1,1-.78.779.781.781,0,0,1,.78-.779m0-2a2.779,2.779,0,1,0,2.78,2.779,2.78,2.78,0,0,0-2.78-2.779Z"/>
<path d="M636.861,289.762H608.927a1,1,0,0,1,0-2h27.934a1,1,0,0,1,0,2Z"/>
<path d="M624.711,289.762h-.057a1,1,0,0,1,.016-2s-.005,0,.02,0c.253,0,5.66-.047,9.234-3.584,2.155-2.13,3.247-5.131,3.247-8.918a1,1,0,0,1,2,0c0,4.349-1.3,7.833-3.854,10.355C631.231,289.642,625.386,289.762,624.711,289.762Z"/>
<path d="M638.171,271.365a.948.948,0,1,1-.947.947.949.949,0,0,1,.947-.947m0-2a2.948,2.948,0,1,0,2.948,2.947,2.946,2.946,0,0,0-2.948-2.947Z"/>
</g>
</svg>