<?xml version="1.0" ?>
<!-- Uploaded to: SVG Repo, www.svgrepo.com, Generator: SVG Repo Mixer Tools -->
<svg fill="#000000" width="800px" height="800px" viewBox="0 -0.92 30.555 30.555" xmlns="http://www.w3.org/2000/svg">
<g transform="translate(-226.286 -322.631)">
<path d="M241.548,344.569a8.49,8.49,0,1,1,8.491-8.49A8.5,8.5,0,0,1,241.548,344.569Zm0-14.98a6.49,6.49,0,1,0,6.491,6.49A6.5,6.5,0,0,0,241.548,329.589Z"/>
<circle cx="3.143" cy="3.143" r="3.143" transform="translate(248.24 322.631)"/>
<circle cx="3.143" cy="3.143" r="3.143" transform="translate(250.555 345.066)"/>
<circle cx="3.143" cy="3.143" r="3.143" transform="translate(226.286 341.922)"/>
<path d="M247.45,331.354,246,329.971l4.654-4.883,1.449,1.377Z"/>
<path d="M252.989,349.374l-7.047-7.1,1.418-1.412,7.055,7.113Z"/>
<rect height="2" transform="matrix(0.796, -0.605, 0.605, 0.796, 228.818, 344.271)" width="7.614"/>
</g>
</svg>