<?xml version="1.0" ?>
<!-- Uploaded to: SVG Repo, www.svgrepo.com, Generator: SVG Repo Mixer Tools -->
<svg fill="#000000" width="800px" height="800px" viewBox="0 0 32.311 32.311" xmlns="http://www.w3.org/2000/svg">
<g transform="translate(-353.294 -194.157)">
<path d="M381.544,196.157a2.062,2.062,0,0,1,2.06,2.06v24.191a2.062,2.062,0,0,1-2.06,2.06h-24.19a2.062,2.062,0,0,1-2.06-2.06V198.217a2.062,2.062,0,0,1,2.06-2.06h24.19m0-2h-24.19a4.06,4.06,0,0,0-4.06,4.06v24.191a4.06,4.06,0,0,0,4.06,4.06h24.19a4.06,4.06,0,0,0,4.06-4.06V198.217a4.06,4.06,0,0,0-4.06-4.06Z"/>
<path d="M369.449,215.205a4.487,4.487,0,0,1-2.73-.922l-12.76-9.753,1.214-1.59,12.761,9.754a2.5,2.5,0,0,0,3.029,0l12.761-9.755,1.215,1.59-12.761,9.754A4.487,4.487,0,0,1,369.449,215.205Z"/>
<path d="M369.109,205.735a1.172,1.172,0,1,1-1.172,1.172,1.174,1.174,0,0,1,1.172-1.172m0-2a3.172,3.172,0,1,0,3.172,3.172,3.172,3.172,0,0,0-3.172-3.172Z"/>
</g>
</svg>