<?xml version="1.0" ?>
<!-- Uploaded to: SVG Repo, www.svgrepo.com, Generator: SVG Repo Mixer Tools -->
<svg fill="#000000" width="800px" height="800px" viewBox="-2.47 0 30.191 30.191" xmlns="http://www.w3.org/2000/svg">
<g transform="translate(-228.1 -579.167)">
<path d="M240.727,586.1A10.627,10.627,0,1,1,230.1,596.73,10.64,10.64,0,0,1,240.727,586.1m0-2a12.627,12.627,0,1,0,12.628,12.627A12.627,12.627,0,0,0,240.727,584.1Z"/>
<path d="M240.727,597.73a.993.993,0,0,1-.707-.293l-4.875-4.876a1,1,0,0,1,1.414-1.414l4.875,4.876a1,1,0,0,1-.707,1.707Z"/>
<path d="M248.957,589.584a1,1,0,0,1-.707-1.707l2.933-2.935a1,1,0,0,1,1.414,1.414l-2.933,2.935A1,1,0,0,1,248.957,589.584Z"/>
<path d="M243.519,586.084a1,1,0,0,1-1-1v-2.261a1.658,1.658,0,0,0-1.656-1.656h-.272a1.658,1.658,0,0,0-1.656,1.656v2.094a1,1,0,0,1-2,0v-2.094a3.661,3.661,0,0,1,3.656-3.656h.272a3.661,3.661,0,0,1,3.656,3.656v2.261A1,1,0,0,1,243.519,586.084Z"/>
</g>
</svg>